{
    "asset": {
        "version": "2.0"
    },
    "scene": 0,
    "scenes": [
        {
            "nodes": [
                0
            ]
        }
    ],
    "nodes": [
        {
            "name": "Cube",
            "matrix": [
                1.0,
                0.0,
                0.0,
                0.0,
                0.0,
                1.0,
                0.0,
                0.0,
                0.0,
                0.0,
                1.0,
                0.0,
                0.0,
                -1.9907047748565674,
                0.0,
                1.0
            ],
            "mesh": 0
        }
    ],
    "meshes": [
        {
            "primitives": [
                {
                    "indices": 0,
                    "attributes": {
                        "POSITION": 1
                    }
                }
            ],
            "name": "Cube_shape"
        }
    ],
    "bufferViews": [
        {
            "buffer": 0,
            "byteOffset": 0,
            "byteLength": 72
        },
        {
            "buffer": 0,
            "byteOffset": 72,
            "byteLength": 96
        }
    ],
    "accessors": [
        {
            "bufferView": 0,
            "byteOffset": 0,
            "type": "SCALAR",
            "componentType": 5123,
            "count": 36,
            "min": [
                0
            ],
            "max": [
                7
            ]
        },
        {
            "bufferView": 1,
            "byteOffset": 0,
            "type": "VEC3",
            "componentType": 5126,
            "count": 8.0,
            "min": [
                -1.0,
                -1.0,
                -1.0
            ],
            "max": [
                1.0,
                1.0,
                1.0
            ]
        }
    ],
    "buffers": [
        {
            "byteLength": 168,
            "uri": "cube.bin"
        }
    ]
}
